<svg xmlns="http://www.w3.org/2000/svg" version="1.1" xmlns:xlink="http://www.w3.org/1999/xlink" xmlns:svgjs="http://svgjs.dev/svgjs" width="1000" height="623" viewBox="0 0 1000 623"><g transform="matrix(1,0,0,1,-0.6060606060606233,114.41725964094388)"><svg viewBox="0 0 396 247" data-background-color="#0c1d36" preserveAspectRatio="xMidYMid meet" height="623" width="1000" xmlns="http://www.w3.org/2000/svg" xmlns:xlink="http://www.w3.org/1999/xlink"><g id="tight-bounds" transform="matrix(1,0,0,1,0.2400000000000091,-0.09999999999999432)"><svg viewBox="0 0 395.52 247.2" height="247.2" width="395.52"><g><svg></svg></g><g><svg viewBox="0 0 395.52 247.2" height="247.2" width="395.52"><g transform="matrix(1,0,0,1,75.54432,53.634239628913804)"><svg viewBox="0 0 244.43135999999998 139.93152074217238" height="139.93152074217238" width="244.43135999999998"><g><svg viewBox="0 0 244.43135999999998 139.93152074217238" height="139.93152074217238" width="244.43135999999998"><g><svg viewBox="0 0 244.43135999999998 139.93152074217238" height="139.93152074217238" width="244.43135999999998"><g><svg viewBox="0 0 244.43135999999998 139.93152074217238" height="139.93152074217238" width="244.43135999999998"><g id="textblocktransform"><svg viewBox="0 0 244.43135999999998 139.93152074217238" height="139.93152074217238" width="244.43135999999998" id="textblock"><g><svg viewBox="0 0 244.43135999999998 139.93152074217238" height="139.93152074217238" width="244.43135999999998"><g transform="matrix(1,0,0,1,0,0)"><svg width="244.43135999999998" viewBox="1.340000033378601 -35.400001525878906 63.15999984741211 36.15999984741211" height="139.93152074217238" data-palette-color="#f9cc0b"><path d="M31.1-17.36L31.1-3.54Q28.66-1.46 25.66-0.35 22.66 0.76 19.41 0.76L19.41 0.76Q16.92 0.76 14.61 0.11 12.3-0.54 10.3-1.72 8.3-2.91 6.64-4.55 4.98-6.2 3.81-8.22 2.64-10.23 1.99-12.55 1.34-14.87 1.34-17.36L1.34-17.36Q1.34-19.85 1.99-22.14 2.64-24.44 3.81-26.45 4.98-28.47 6.64-30.11 8.3-31.76 10.3-32.93 12.3-34.11 14.61-34.75 16.92-35.4 19.41-35.4L19.41-35.4Q22.66-35.4 25.66-34.29 28.66-33.18 31.1-31.1L31.1-31.1 27.44-25Q25.85-26.61 23.78-27.53 21.7-28.44 19.41-28.44L19.41-28.44Q17.11-28.44 15.1-27.56 13.09-26.68 11.57-25.18 10.06-23.68 9.18-21.67 8.3-19.65 8.3-17.36L8.3-17.36Q8.3-15.04 9.18-13.01 10.06-10.99 11.57-9.47 13.09-7.96 15.1-7.08 17.11-6.2 19.41-6.2L19.41-6.2Q20.73-6.2 21.97-6.52 23.22-6.84 24.34-7.4L24.34-7.4 24.34-17.36 31.1-17.36ZM43.5-13.99L43.5 0 36.5 0 36.5-35.01 43.5-35.01 43.5-21 57.49-21 57.49-35.01 64.5-35.01 64.5 0 57.49 0 57.49-13.99 43.5-13.99Z" opacity="1" transform="matrix(1,0,0,1,0,0)" fill="#f9cc0b" class="undefined-text-0" data-fill-palette-color="primary" id="text-0"></path></svg></g></svg></g></svg></g></svg></g><g></g></svg></g></svg></g></svg></g><g><path d="M131.975 20.6A122.216 122.216 0 0 1 263.545 20.6L250.926 20.6A109.597 109.597 0 0 0 144.594 20.6L131.975 20.6M131.975 226.6A122.216 122.216 0 0 0 263.545 226.6L250.926 226.6A109.597 109.597 0 0 1 144.594 226.6L131.975 226.6" fill="#f9cc0b" stroke="transparent" data-fill-palette-color="tertiary"></path></g></svg></g><defs></defs></svg><rect width="395.52" height="247.2" fill="none" stroke="none" visibility="hidden"></rect></g></svg></g></svg>