<svg xmlns="http://www.w3.org/2000/svg" version="1.1" xmlns:xlink="http://www.w3.org/1999/xlink" xmlns:svgjs="http://svgjs.dev/svgjs" width="1000" height="794" viewBox="0 0 1000 794"><g transform="matrix(1,0,0,1,0.35423656140307,0.3216462130985178)"><svg viewBox="0 0 311 247" data-background-color="#010c80" preserveAspectRatio="xMidYMid meet" height="794" width="1000" xmlns="http://www.w3.org/2000/svg" xmlns:xlink="http://www.w3.org/1999/xlink"><g id="tight-bounds" transform="matrix(1,0,0,1,-0.10996516218327201,-0.09994308911498706)"><svg viewBox="0 0 311.2200697837364 247.2" height="247.2" width="311.2200697837364"><g><svg viewBox="0 0 395.52 314.15886535833346" height="247.2" width="311.2200697837364"><g><svg viewBox="0 0 395.52 314.15886535833346" height="314.15886535833346" width="395.52"><g id="textblocktransform"><svg viewBox="0 0 395.52 314.15886535833346" height="314.15886535833346" width="395.52" id="textblock"><g><svg viewBox="0 0 395.52 218.02509830270466" height="218.02509830270466" width="395.52"><path d="M394.594 46.762C392.735 24.131 387.435 17.84 387.435 17.84 371.165-5.47 350.86-0.446 332.619 2.903 300.414 3.039 268.339 8.018 236.208 10.689 168.767 11.096 100.749 4.397 33.643 20.918 27.339 25.987-6.54 21.913 1.121 49.659 3.129 61.201 10.456 74.01 10.232 84.601 11.236 86.457 12.631 82.202 13.226 84.873 15.309 92.069 18.711 88.675 21.501 92.929 17.614 104.29 20.403 113.75 23.062 123.662 18.377 126.242 12.371 125.02 9.675 133.574 9.396 139.775 7.89 138.599 6.235 138.327 5.026 138.146 2.59 138.825 2.999 140.771 4.394 147.425-1.594 151.272 2.162 157.79-0.422 164.85 3.948 170.961 3.353 178.61 3.278 180.149 3.687 181.461 4.338 181.824 7.22 183.77 3.018 187.572 3.464 191.691 33.029 219.844 65.104 200.381 95.394 213.326 103.259 204.273 97.346 216.539 100.489 214.638 102.943 212.421 104.728 221.609 107.499 216.404 107.927 214.91 107.276 211.38 108.8 212.059 109.6 212.421 110.307 212.33 110.418 210.248 110.586 207.125 109.117 209.071 108.726 207.442 112.947 199.204 111.906 218.803 115.866 217.988 115.68 215.589 114.528 212.149 116.889 212.602 119.232 209.162 119.306 206.31 121.389 214.05 121.463 215.725 121.835 216.902 122.43 217.716 128.938 209.298 135.409 220.704 142.233 216.902 146.417 212.737 150.433 219.165 154.672 217.58 156.16 216.313 157.666 214.05 159.098 217.852 176.632 218.667 195.319 215.272 211.943 217.988 256.364 212.918 303.835 220.07 350.674 213.371 361.719 210.791 373.192 207.125 383.958 204.183 383.958 204.183 392.679 196.126 392.679 159.917S394.538 128.234 394.817 99.402C395.096 70.57 396.398 69.393 394.538 46.762Z" opacity="1" fill="#f8fafc" data-fill-palette-color="tertiary"></path><g transform="matrix(1,0,0,1,55.76832,26.068561146666667)"><svg width="283.98335999999995" viewBox="2.9800000190734863 -36.040000915527344 62.52000045776367 36.53000259399414" height="165.88797600937133" data-palette-color="#010c80"><path d="M30.37-17.7L30.37-4.66Q28.56-2.08 25.33-0.79 22.09 0.49 17.8 0.49L17.8 0.49Q13.45 0.49 10.08-1.55 6.71-3.59 4.87-7.35 3.03-11.11 2.98-16.06L2.98-16.06 2.98-19.17Q2.98-27.2 6.73-31.62 10.47-36.04 17.26-36.04L17.26-36.04Q22.83-36.04 26.22-33.19 29.61-30.35 30.37-25.12L30.37-25.12 25.68-25.12Q24.37-32.18 17.29-32.18L17.29-32.18Q12.57-32.18 10.14-28.87 7.71-25.56 7.69-19.29L7.69-19.29 7.69-16.38Q7.69-10.4 10.42-6.87 13.16-3.34 17.82-3.34L17.82-3.34Q20.46-3.34 22.44-3.93 24.41-4.52 25.71-5.91L25.71-5.91 25.71-13.89 17.48-13.89 17.48-17.7 30.37-17.7ZM65.5-35.55L65.5 0 60.79 0 60.79-16.43 42.87-16.43 42.87 0 38.18 0 38.18-35.55 42.87-35.55 42.87-20.26 60.79-20.26 60.79-35.55 65.5-35.55Z" opacity="1" transform="matrix(1,0,0,1,0,0)" fill="#010c80" class="undefined-text-0" data-fill-palette-color="quaternary" id="text-0"></path></svg></g></svg></g><g transform="matrix(1,0,0,1,75.54432,257.18726812709303)"><svg viewBox="0 0 244.43135999999998 56.97159723124043" height="56.97159723124043" width="244.43135999999998"><g transform="matrix(1,0,0,1,0,0)"><svg width="244.43135999999998" viewBox="3.799999952316284 -37.45000076293945 163.22999572753906 38.04999923706055" height="56.97159723124043" data-palette-color="#f8fafc"><path d="M8.35 0L3.8 0 3.8-34.45 19.25-34.45 18.75-30.8 8.35-30.8 8.35-18.85 17.35-18.85 17.35-15.25 8.35-15.25 8.35 0ZM40.4-26.35L40.4 0 36.6 0 36.3-3.7Q35.05-1.55 33.47-0.48 31.9 0.6 29.8 0.6L29.8 0.6Q26.95 0.6 25.25-1.35 23.55-3.3 23.55-6.45L23.55-6.45 23.55-26.35 27.95-26.35 27.95-6.9Q27.95-2.85 30.8-2.85L30.8-2.85Q32.45-2.85 33.7-4.03 34.95-5.2 36-7.3L36-7.3 36-26.35 40.4-26.35ZM52.3 0.6Q50.09 0.6 48.77-0.8 47.45-2.2 47.45-4.6L47.45-4.6 47.45-36.95 51.84-37.45 51.84-4.7Q51.84-3.05 53.25-3.05L53.25-3.05Q53.9-3.05 54.5-3.3L54.5-3.3 55.5-0.3Q54.05 0.6 52.3 0.6L52.3 0.6ZM64.49 0.6Q62.29 0.6 60.97-0.8 59.64-2.2 59.64-4.6L59.64-4.6 59.64-36.95 64.04-37.45 64.04-4.7Q64.04-3.05 65.44-3.05L65.44-3.05Q66.09-3.05 66.69-3.3L66.69-3.3 67.69-0.3Q66.24 0.6 64.49 0.6L64.49 0.6ZM78.49-26.9Q82.84-26.9 85.94-23.95L85.94-23.95 84.04-21.4Q82.64-22.45 81.34-22.98 80.04-23.5 78.59-23.5L78.59-23.5Q76.84-23.5 75.82-22.53 74.79-21.55 74.79-19.85L74.79-19.85Q74.79-18.2 75.79-17.25 76.79-16.3 79.59-15.3L79.59-15.3Q83.19-14 84.89-12.2 86.59-10.4 86.59-7.3L86.59-7.3Q86.59-3.55 84.07-1.48 81.54 0.6 77.79 0.6L77.79 0.6Q72.79 0.6 69.44-2.85L69.44-2.85 71.74-5.3Q74.54-2.85 77.69-2.85L77.69-2.85Q79.69-2.85 80.89-3.95 82.09-5.05 82.09-7.05L82.09-7.05Q82.09-8.4 81.64-9.25 81.19-10.1 80.09-10.8 78.99-11.5 76.89-12.25L76.89-12.25Q73.39-13.55 71.89-15.33 70.39-17.1 70.39-19.7L70.39-19.7Q70.39-21.7 71.42-23.35 72.44-25 74.29-25.95 76.14-26.9 78.49-26.9L78.49-26.9ZM101.69-3.95L103.39-1.2Q101.14 0.6 98.34 0.6L98.34 0.6Q95.39 0.6 93.76-1.15 92.14-2.9 92.14-5.85L92.14-5.85 92.14-22.9 88.59-22.9 88.59-26.35 92.14-26.35 92.14-32.3 96.54-32.85 96.54-26.35 101.64-26.35 101.19-22.9 96.54-22.9 96.54-5.8Q96.54-3.05 98.89-3.05L98.89-3.05Q99.69-3.05 100.29-3.25 100.89-3.45 101.69-3.95L101.69-3.95ZM122.24-5.6Q122.24-4.2 122.64-3.53 123.04-2.85 123.94-2.45L123.94-2.45 122.99 0.6Q121.14 0.3 120.06-0.58 118.99-1.45 118.54-3.2L118.54-3.2Q116.39 0.6 112.24 0.6L112.24 0.6Q108.99 0.6 107.06-1.58 105.14-3.75 105.14-7.35L105.14-7.35Q105.14-11.55 107.74-13.78 110.34-16 115.29-16L115.29-16 117.89-16 117.89-18.4Q117.89-21 116.86-22.2 115.84-23.4 113.69-23.4L113.69-23.4Q111.14-23.4 107.74-22.05L107.74-22.05 106.64-25.15Q110.69-26.9 114.24-26.9L114.24-26.9Q118.29-26.9 120.26-24.73 122.24-22.55 122.24-18.6L122.24-18.6 122.24-5.6ZM113.14-2.7Q116.24-2.7 117.89-6.9L117.89-6.9 117.89-13.05 115.79-13.05Q112.64-13.05 111.16-11.7 109.69-10.35 109.69-7.55L109.69-7.55Q109.69-5.15 110.59-3.93 111.49-2.7 113.14-2.7L113.14-2.7ZM138.03-26.9Q140.03-26.9 141.63-26.25 143.23-25.6 144.73-24.1L144.73-24.1 142.73-21.5Q141.58-22.45 140.51-22.9 139.43-23.35 138.18-23.35L138.18-23.35Q132.88-23.35 132.88-13.05L132.88-13.05Q132.88-7.7 134.23-5.4 135.58-3.1 138.13-3.1L138.13-3.1Q139.38-3.1 140.41-3.55 141.43-4 142.68-4.95L142.68-4.95 144.73-2.3Q141.73 0.6 138.08 0.6L138.08 0.6Q133.38 0.6 130.78-2.8 128.18-6.2 128.18-12.95L128.18-12.95Q128.18-19.55 130.83-23.23 133.48-26.9 138.03-26.9L138.03-26.9ZM149.13-36.95L153.53-37.45 153.53 0 149.13 0 149.13-36.95ZM161.73-26.35L166.23-26.35 158.33-14.65 167.03 0 162.13 0 153.78-14.4 161.73-26.35Z" opacity="1" transform="matrix(1,0,0,1,0,0)" fill="#f8fafc" class="undefined-text-1" data-fill-palette-color="secondary" id="text-1"></path></svg></g></svg></g></svg></g></svg></g><g></g></svg></g><defs></defs></svg><rect width="311.2200697837364" height="247.2" fill="none" stroke="none" visibility="hidden"></rect></g></svg></g></svg>